<?xml version="1.0" encoding="UTF-8" standalone="no"?>
<svg xmlns="http://www.w3.org/2000/svg" xmlns:xlink="http://www.w3.org/1999/xlink" viewBox="0 0 300 300">
  <defs>
    <radialGradient id="crust" cx="50%" cy="50%" r="50%" fx="50%" fy="50%">
      <stop offset="70%" stop-color="#e8b85c" />
      <stop offset="95%" stop-color="#c98a2b" />
    </radialGradient>
    <radialGradient id="sauce" cx="45%" cy="45%" r="45%" fx="45%" fy="45%">
      <stop offset="80%" stop-color="#d13b09" />
      <stop offset="95%" stop-color="#a52a2a" />
    </radialGradient>
    <radialGradient id="cheese" cx="40%" cy="40%" r="40%" fx="40%" fy="40%">
      <stop offset="80%" stop-color="#ffdc73" />
      <stop offset="95%" stop-color="#ffbd59" />
    </radialGradient>
  </defs>
  
  <!-- Pizza base -->
  <circle cx="150" cy="150" r="140" fill="url(#crust)" />
  <circle cx="150" cy="150" r="130" fill="url(#sauce)" />
  <circle cx="150" cy="150" r="125" fill="url(#cheese)" />
  
  <!-- Pepperoni slices -->
  <circle cx="100" cy="90" r="15" fill="#c12220" />
  <circle cx="180" cy="80" r="15" fill="#c12220" />
  <circle cx="210" cy="130" r="15" fill="#c12220" />
  <circle cx="170" cy="180" r="15" fill="#c12220" />
  <circle cx="120" cy="160" r="15" fill="#c12220" />
  <circle cx="80" cy="160" r="15" fill="#c12220" />
  <circle cx="150" cy="120" r="15" fill="#c12220" />
  <circle cx="90" cy="210" r="15" fill="#c12220" />
  <circle cx="200" cy="200" r="15" fill="#c12220" />
  <circle cx="140" cy="220" r="15" fill="#c12220" />
  <circle cx="230" cy="170" r="15" fill="#c12220" />
  
  <!-- Vegetables -->
  <circle cx="120" cy="100" r="8" fill="#1a571a" />
  <circle cx="170" cy="140" r="8" fill="#1a571a" />
  <circle cx="110" cy="180" r="8" fill="#1a571a" />
  <circle cx="190" cy="110" r="8" fill="#1a571a" />
  <circle cx="140" cy="190" r="8" fill="#1a571a" />
</svg>
