<?xml version="1.0" encoding="UTF-8" standalone="no"?>
<svg width="100" height="100" viewBox="0 0 100 100" xmlns="http://www.w3.org/2000/svg">
  <g fill="#D97706" fill-opacity="0.4">
    <!-- Pizza icon -->
    <path d="M25,20 C36,20 45,29 45,40 C45,51 36,60 25,60 C14,60 5,51 5,40 C5,29 14,20 25,20 Z M25,25 C17,25 10,32 10,40 C10,48 17,55 25,55 C33,55 40,48 40,40 C40,32 33,25 25,25 Z" />
    <!-- Slice lines -->
    <path d="M25,25 L25,55 M25,25 L40,40 M25,25 L10,40" stroke="#B45309" stroke-width="1" fill="none" />
    
    <!-- Fork icon -->
    <path d="M70,5 L73,5 L73,25 L75,25 L75,5 L78,5 L78,25 L80,25 L80,5 L83,5 L83,30 C83,33 80,35 77,35 L76,35 L76,55 L73,55 L73,35 L72,35 C69,35 66,33 66,30 L66,5 L70,5 Z" />
    
    <!-- Plate icon -->
    <circle cx="75" cy="80" r="15" stroke="#B45309" stroke-width="2" fill="none" />
    <circle cx="75" cy="80" r="10" stroke="#B45309" stroke-width="1" fill="none" />
    
    <!-- Carrot icon -->
    <path d="M15,70 C15,85 25,95 25,95 C25,95 35,85 35,70 C35,65 30,60 25,60 C20,60 15,65 15,70 Z" />
    <path d="M25,60 C25,60 28,55 25,45 C23,38 25,35 25,35" stroke="#B45309" stroke-width="2" fill="none" />
  </g>
</svg>
